<svg width="512" height="512" viewBox="0 0 512 512" fill="none" xmlns="http://www.w3.org/2000/svg">
<path d="M491.318 235.318H20.682C9.26 235.318 0 244.577 0 256C0 267.423 9.26 276.682 20.682 276.682H491.318C502.741 276.682 512 267.423 512 256C512 244.578 502.741 235.318 491.318 235.318Z" fill="#F46569"/>
<path d="M491.318 78.439H20.682C9.26 78.439 0 87.699 0 99.121C0 110.543 9.26 119.803 20.682 119.803H491.318C502.741 119.803 512 110.543 512 99.121C512 87.699 502.741 78.439 491.318 78.439Z" fill="#F46569"/>
<path d="M491.318 392.197H20.682C9.26 392.197 0 401.456 0 412.879C0 424.302 9.26 433.561 20.682 433.561H491.318C502.741 433.561 512 424.302 512 412.879C512 401.456 502.741 392.197 491.318 392.197Z" fill="#F46569"/>
</svg>
